<svg id="Layer_1" data-name="Layer 1" xmlns="http://www.w3.org/2000/svg" viewBox="0 0 49.54 8.9"><defs><style>.cls-1{fill:#ea5720;}.cls-2{fill:#fff;}</style></defs><path class="cls-1" d="M688.36,112.78v-3.52a2.72,2.72,0,0,1,.35-1.38,2.59,2.59,0,0,1,1-1,3.21,3.21,0,0,1,1.6-.38,3.26,3.26,0,0,1,1.62.38,2.63,2.63,0,0,1,1,1,2.83,2.83,0,0,1,.35,1.38v3.52h-1.64v-3.52a1.34,1.34,0,0,0-2.29-1,1.27,1.27,0,0,0-.4,1v3.52Z" transform="translate(-688.36 -104.02)"/><path class="cls-2" d="M700.07,112.92a3.31,3.31,0,0,1-1.55-.35,2.54,2.54,0,0,1-1-1,2.75,2.75,0,0,1-.36-1.4v-3.53h1.38v3.51a1.6,1.6,0,0,0,.21.83,1.55,1.55,0,0,0,.56.55,1.62,1.62,0,0,0,.78.2,1.58,1.58,0,0,0,.77-.2,1.55,1.55,0,0,0,.56-.55,1.6,1.6,0,0,0,.22-.83v-3.51H703v3.53a2.76,2.76,0,0,1-.37,1.4,2.54,2.54,0,0,1-1,1A3.27,3.27,0,0,1,700.07,112.92Z" transform="translate(-688.36 -104.02)"/><path class="cls-2" d="M708.8,112.78a3.49,3.49,0,0,1-1.69-.41,3.1,3.1,0,0,1-1.17-1.1,3,3,0,0,1,0-3.11,3.07,3.07,0,0,1,1.17-1.09,3.38,3.38,0,0,1,1.69-.41h.75v1.17h-.77a1.89,1.89,0,0,0-1,.26,1.77,1.77,0,0,0-.66.67,2,2,0,0,0-.24,1,1.89,1.89,0,0,0,.24,1,1.8,1.8,0,0,0,.66.68,1.88,1.88,0,0,0,1,.25h.77v1.18Z" transform="translate(-688.36 -104.02)"/><path class="cls-2" d="M712,112.78V104h1.38v8.76Z" transform="translate(-688.36 -104.02)"/><path class="cls-2" d="M719.28,112.78a4,4,0,0,1-1.81-.39,3,3,0,0,1-1.2-1.08,2.91,2.91,0,0,1-.43-1.59,3.46,3.46,0,0,1,.38-1.67,3.08,3.08,0,0,1,4.22-1.12,2.55,2.55,0,0,1,.95,1.13,4,4,0,0,1,.3,1.59,2,2,0,0,1-.05.51H717.3a1.51,1.51,0,0,0,.66,1.08,2.37,2.37,0,0,0,1.32.36h1.64v1.18Zm-2-3.55h3a2,2,0,0,0-.17-.75,1.33,1.33,0,0,0-.47-.6,1.43,1.43,0,0,0-.85-.23,1.34,1.34,0,0,0-.81.24,1.53,1.53,0,0,0-.51.59A2,2,0,0,0,717.29,109.23Z" transform="translate(-688.36 -104.02)"/><path class="cls-2" d="M727.1,112.92a3.27,3.27,0,0,1-1.54-.35,2.54,2.54,0,0,1-1-1,2.75,2.75,0,0,1-.36-1.4v-3.53h1.38v3.51a1.6,1.6,0,0,0,.21.83,1.48,1.48,0,0,0,.56.55,1.58,1.58,0,0,0,1.54,0,1.66,1.66,0,0,0,.57-.55,1.6,1.6,0,0,0,.21-.83v-3.51H730v3.53a2.75,2.75,0,0,1-.36,1.4,2.67,2.67,0,0,1-1,1A3.28,3.28,0,0,1,727.1,112.92Z" transform="translate(-688.36 -104.02)"/><path class="cls-2" d="M732.86,112.78V111.6h2.95a.69.69,0,0,0,.53-.2.65.65,0,0,0,.2-.47.67.67,0,0,0-.69-.66h-1.2a2.34,2.34,0,0,1-1.46-.43,1.62,1.62,0,0,1-.57-1.37,1.73,1.73,0,0,1,.25-.89,1.8,1.8,0,0,1,.67-.67,1.74,1.74,0,0,1,.94-.25h2.85v1.17h-2.71a.62.62,0,0,0-.46.18.56.56,0,0,0-.18.42.58.58,0,0,0,.18.42.65.65,0,0,0,.48.18h1.16a2.38,2.38,0,0,1,1.54.46,1.69,1.69,0,0,1,.55,1.39,1.76,1.76,0,0,1-.25.94,1.9,1.9,0,0,1-.69.69,1.84,1.84,0,0,1-1,.27Z" transform="translate(-688.36 -104.02)"/></svg>